<svg width="153" height="58" viewBox="0 0 153 58" fill="none" xmlns="http://www.w3.org/2000/svg">
<g clip-path="url(#clip0_2_4)">
<path d="M25.2347 2.35906C25.6463 1.93253 25.9987 1.54512 26.3709 1.17769C27.5587 0.00494277 28.4798 0.00851911 29.6541 1.19045C33.9638 5.5284 38.2722 9.86776 42.5792 14.2084C44.8137 16.4602 47.0478 18.7124 49.2726 20.9738C49.5675 21.2735 49.8649 21.5975 50.0585 21.9645C50.4778 22.7593 50.1428 23.5536 49.2929 23.8551C49.0216 23.9514 48.7208 23.9925 48.4311 24.005C46.3216 24.0965 46.3214 24.0922 46.3212 26.1852C46.321 28.3438 46.2969 30.5028 46.3345 32.6607C46.3468 33.3652 46.1071 33.7859 45.5065 34.1639C40.6147 37.2427 35.9468 36.5482 31.4221 33.3743C29.5771 32.0801 27.8447 30.6177 25.7855 29.6494C20.6501 27.2348 15.4753 26.6827 10.2345 29.328C10.1477 29.3718 10.0551 29.4098 9.96077 29.4315C9.90333 29.4447 9.8375 29.4214 9.67414 29.4032C9.67414 28.0227 9.62473 26.629 9.69128 25.2409C9.73664 24.2946 9.39572 23.9077 8.46033 24.004C8.13682 24.0372 7.80639 24.0174 7.47984 24.0041C6.78778 23.976 6.21184 23.7757 5.90225 23.0648C5.58818 22.3437 5.87616 21.7752 6.32157 21.273C6.86299 20.6626 7.4632 20.104 8.04143 19.5265C13.7554 13.8197 19.4701 8.11363 25.2347 2.35906ZM23.7439 20.9239C23.7444 21.8069 23.7694 22.6907 23.7383 23.5726C23.7105 24.3585 24.022 24.704 24.8309 24.6944C27.0217 24.6682 29.2133 24.6653 31.4041 24.6953C32.1684 24.7057 32.4596 24.4071 32.4507 23.6545C32.427 21.6599 32.4181 19.6643 32.4554 17.6701C32.4721 16.7732 32.0414 16.4049 31.2231 16.3999C29.0648 16.3864 26.9063 16.4014 24.7479 16.3878C24.0477 16.3833 23.7304 16.6874 23.7413 17.3921C23.7586 18.5038 23.7447 19.6159 23.7439 20.9239Z" fill="#283648"/>
<path d="M49.2665 36.3817C45.6156 44.6684 39.295 49.3143 30.4198 50.3218C22.7779 51.1893 16.1245 48.823 10.4964 43.5828C10.3057 43.4052 10.131 43.209 9.96273 43.0098C9.90375 42.9399 9.88642 42.8349 9.81451 42.659C11.149 41.704 12.6709 41.1475 14.1998 40.6016C16.8713 39.6477 19.4519 40.0803 22.0408 41.0039C24.7121 41.9569 27.4417 42.706 30.396 42.7853C27.7289 41.2983 25.1877 39.763 22.541 38.4105C19.4673 36.8398 16.3376 36.8126 13.1491 37.9453C12.0723 38.3278 11.0323 38.8126 9.96014 39.2092C6.20759 40.5975 2.22606 39.2413 0.12794 35.8756C0.0465259 35.745 -0.0690458 35.609 0.076121 35.3703C0.820942 35.5862 1.50847 36.0371 2.3332 36.0827C3.93879 36.1717 5.34614 35.6278 6.69627 34.8491C8.39331 33.8703 9.88175 32.5493 11.7094 31.7852C17.3814 29.4137 22.5803 30.5416 27.4253 33.9838C29.477 35.4415 31.4179 37.0713 33.8279 37.9292C39.3095 39.8806 44.2958 38.8426 48.8663 35.3788C49.1177 35.1883 49.2857 34.8577 49.729 34.8721C49.8026 35.4213 49.4418 35.8384 49.2665 36.3817Z" fill="#0083F4"/>
<path d="M93.8585 29.1415C92.9854 27.2732 92.1416 25.4731 91.2401 23.5497C91.0036 23.9867 91.0797 24.3356 91.0791 24.6609C91.0727 28.4538 91.0546 32.2469 91.0906 36.0395C91.0985 36.8744 90.8767 37.2557 89.9911 37.1749C89.3425 37.1156 88.6794 37.1115 88.0315 37.1738C87.0939 37.264 86.7902 36.9187 86.7975 35.9653C86.8375 30.7667 86.8163 25.5676 86.8165 20.3687C86.8165 19.2897 86.836 18.2103 86.8122 17.1319C86.7994 16.5478 87.0355 16.2987 87.6173 16.3057C88.925 16.3216 90.2333 16.3322 91.5407 16.3089C92.1995 16.2971 92.4324 16.7121 92.6603 17.2143C94.1586 20.5171 95.6672 23.8152 97.1788 27.112C97.3253 27.4313 97.4235 27.7896 97.7599 28.0226C98.1427 27.7233 98.2429 27.2637 98.4259 26.8622C99.9032 23.6214 101.381 20.3808 102.829 17.1269C103.089 16.5438 103.421 16.2534 104.082 16.2727C105.258 16.3069 106.436 16.3009 107.612 16.2701C108.256 16.2533 108.556 16.4365 108.554 17.1503C108.535 23.5263 108.537 29.9023 108.552 36.2783C108.554 36.9198 108.31 37.1588 107.687 37.1352C106.969 37.108 106.244 37.0811 105.53 37.1431C104.603 37.2237 104.274 36.9037 104.287 35.9374C104.336 32.3087 104.304 28.6788 104.303 25.0494C104.303 24.6285 104.303 24.2076 104.105 23.7192C103.236 25.5593 102.363 27.3972 101.501 29.2399C100.767 30.808 100.012 32.3679 99.3287 33.9579C98.8802 35.001 98.0107 34.5334 97.2972 34.6348C96.7132 34.7179 96.3262 34.5039 96.0705 33.9239C95.3719 32.3397 94.6191 30.7794 93.8585 29.1415Z" fill="#283648"/>
<path d="M113.12 22.789C113.121 20.892 113.144 19.0927 113.111 17.2944C113.097 16.5615 113.296 16.2247 114.102 16.2539C117.204 16.3663 120.312 16.1326 123.414 16.429C127.384 16.8085 130.219 19.0913 129.787 24.3143C129.575 26.8843 128.342 28.6614 125.8 29.6801C127.283 32.1274 128.722 34.5029 130.278 37.0715C128.58 37.2368 127.127 37.1975 125.679 37.1119C125.246 37.0863 125.108 36.6044 124.919 36.2748C123.958 34.6024 122.994 32.9308 122.079 31.2334C121.726 30.5791 121.29 30.2606 120.527 30.3192C119.779 30.3765 119.022 30.3598 118.271 30.3265C117.601 30.2967 117.345 30.5408 117.362 31.2354C117.401 32.9024 117.355 34.5714 117.381 36.2391C117.391 36.8628 117.17 37.1441 116.533 37.1257C115.716 37.1021 114.897 37.0904 114.081 37.1233C113.278 37.1557 113.107 36.7509 113.11 36.0354C113.131 31.6527 113.12 27.2699 113.12 22.789ZM122.254 20.2925C120.881 20.2922 119.507 20.3025 118.135 20.2862C117.599 20.2799 117.366 20.4838 117.372 21.0363C117.391 22.5726 117.394 24.1096 117.371 25.6458C117.362 26.2323 117.58 26.4696 118.173 26.4592C119.546 26.4354 120.92 26.4691 122.292 26.446C124.191 26.414 125.47 25.2099 125.502 23.4641C125.537 21.5398 124.462 20.4305 122.254 20.2925Z" fill="#283648"/>
<path d="M133.628 34.2179C135.847 28.4455 138.042 22.7451 140.212 17.0352C140.434 16.4502 140.755 16.2201 141.372 16.2447C142.319 16.2825 143.272 16.3072 144.215 16.2382C144.973 16.1828 145.238 16.5828 145.468 17.1862C147.385 22.2225 149.32 27.2523 151.248 32.2847C151.84 33.8315 152.427 35.3805 153.091 37.1238C151.568 37.1238 150.219 37.1406 148.87 37.1122C148.522 37.1049 148.457 36.7289 148.353 36.4617C148.034 35.6397 147.716 34.8171 147.425 33.985C147.253 33.4934 146.981 33.2522 146.423 33.2578C144.036 33.2817 141.648 33.2808 139.261 33.261C138.709 33.2564 138.438 33.48 138.272 33.9899C137.998 34.8276 137.671 35.648 137.356 36.4715C137.227 36.8067 137.103 37.16 136.638 37.1589C135.338 37.156 134.038 37.1579 132.523 37.1579C132.925 36.0843 133.26 35.1858 133.628 34.2179ZM141.771 29.201C143.025 29.201 144.28 29.201 145.715 29.201C144.733 26.6025 143.833 24.2198 142.842 21.5956C141.849 24.2242 140.951 26.6001 140.061 28.9549C140.673 29.3037 141.14 29.1559 141.771 29.201Z" fill="#283648"/>
<path d="M60.4026 17.6937C63.0468 15.7644 65.9397 15.5533 68.9638 16.1356C70.2208 16.3776 71.4121 16.8185 72.5469 17.4236C73.1152 17.7266 73.3163 18.0682 72.9711 18.6712C72.5334 19.4358 72.3158 20.4961 71.6691 20.9245C70.998 21.3691 70.1393 20.5077 69.3483 20.2669C68.1166 19.8918 66.8838 19.656 65.5937 19.7072C64.9862 19.7314 64.4272 19.8845 63.9336 20.2253C62.6404 21.1183 62.6735 22.8122 64.0068 23.6374C64.9993 24.2518 66.1524 24.3988 67.259 24.6662C68.339 24.9273 69.411 25.2002 70.437 25.6388C72.5293 26.5334 73.7102 28.0766 73.7959 30.3771C73.8926 32.9705 72.9768 35.0492 70.6119 36.3244C69.2879 37.0383 67.822 37.2771 66.3511 37.3168C63.6887 37.3885 61.1654 36.8237 58.8559 35.4222C58.1178 34.9743 57.7709 34.542 58.4188 33.7341C58.9632 33.0552 59.1997 32.1623 59.861 31.4821C61.3636 32.4055 62.9089 33.178 64.6491 33.4186C65.7797 33.5749 66.9251 33.7082 68.0179 33.1929C68.9021 32.776 69.3508 32.0858 69.3733 31.1012C69.3959 30.114 68.7855 29.6265 67.9833 29.2957C66.8923 28.8458 65.7317 28.6365 64.5941 28.3467C63.9305 28.1777 63.2642 28.0058 62.6194 27.7779C58.5026 26.3226 57.1764 21.8216 59.8264 18.3236C59.9835 18.1162 60.1743 17.9343 60.4026 17.6937Z" fill="#283648"/>
<path d="M80.2012 37.1281C77.6128 37.1032 77.996 37.3274 77.989 34.9646C77.9717 29.1201 78.004 23.2753 77.9632 17.4311C77.9564 16.4688 78.2628 16.1511 79.1927 16.2393C79.9047 16.3069 80.6286 16.2715 81.3462 16.2494C81.9449 16.2311 82.1066 16.4766 82.1041 17.0741C82.0804 22.6871 82.0908 28.3003 82.0911 33.9134C82.0912 34.5974 82.0178 35.291 82.1074 35.963C82.2319 36.8972 81.8765 37.2343 80.9813 37.1303C80.7559 37.1041 80.5247 37.1276 80.2012 37.1281Z" fill="#283648"/>
</g>
<defs>
<clipPath id="clip0_2_4">
<rect width="153" height="58" fill="white"/>
</clipPath>
</defs>
</svg>
